<?xml version="1.0" standalone="no"?>
<!DOCTYPE svg PUBLIC "-//W3C//DTD SVG 20010904//EN"
 "http://www.w3.org/TR/2001/REC-SVG-20010904/DTD/svg10.dtd">
<svg version="1.0" xmlns="http://www.w3.org/2000/svg"
 width="45" height="45" viewBox="0 0 512.000000 512.000000"
 preserveAspectRatio="xMidYMid meet">

<g transform="translate(0.000000,512.000000) scale(0.100000,-0.100000)"
fill="#198754" stroke="none">
<path d="M1081 5104 c-203 -54 -401 -272 -587 -644 -74 -149 -144 -315 -144
-342 0 -27 44 -68 73 -68 42 0 65 31 122 165 163 379 344 632 518 722 74 39
169 39 251 0 81 -37 214 -173 299 -303 286 -436 550 -1275 608 -1929 48 -541
-207 -1028 -644 -1230 -77 -36 -205 -72 -272 -77 l-40 -3 -3 445 -2 444 170
171 c185 187 194 202 145 250 -45 46 -67 36 -190 -85 -61 -60 -114 -110 -118
-110 -4 0 -7 76 -7 169 l0 170 -26 20 c-15 12 -33 21 -40 21 -29 0 -64 -25
-74 -53 -6 -18 -10 -149 -10 -340 l0 -311 -113 112 c-125 123 -147 133 -192
87 -49 -48 -40 -64 140 -245 l165 -166 0 -291 0 -292 -37 5 c-443 62 -794 418
-900 914 -26 124 -24 396 6 590 39 258 96 512 168 755 19 66 35 133 35 150 -1
57 -80 87 -121 46 -41 -41 -169 -539 -220 -861 -76 -473 -42 -779 121 -1091
130 -250 351 -463 589 -566 75 -32 226 -74 322 -88 l37 -6 0 -544 0 -545 -530
0 -531 0 -24 -25 c-32 -31 -32 -69 0 -100 l24 -25 2511 0 2511 0 24 25 c32 31
32 69 0 100 l-24 25 -316 0 -315 0 0 515 0 515 24 0 c13 0 55 10 92 21 204 63
362 201 464 404 74 147 93 229 94 405 0 157 -12 226 -61 349 -96 241 -293 421
-525 480 l-69 18 19 24 c61 77 122 233 122 309 0 30 -6 43 -26 59 -56 44 -104
13 -128 -85 -41 -163 -154 -299 -310 -375 -49 -24 -95 -53 -103 -65 -8 -13
-21 -49 -30 -81 -35 -135 -123 -252 -228 -303 -150 -73 -354 -38 -480 81 l-55
52 0 166 0 166 161 160 c89 88 167 173 174 190 22 49 -11 104 -64 105 -18 0
-57 -33 -147 -122 l-123 -121 -3 262 -3 263 -28 24 c-34 29 -56 30 -91 3 l-26
-20 0 -190 c0 -104 -3 -189 -8 -189 -4 0 -59 52 -122 115 -100 100 -119 115
-147 115 -43 0 -73 -30 -73 -73 0 -29 20 -52 175 -207 l175 -175 0 -232 0
-232 -50 -50 c-157 -157 -423 -172 -583 -32 -66 58 -74 81 -81 231 -9 173 -30
337 -67 525 -28 140 -110 471 -143 577 l-15 47 57 28 c79 39 95 72 103 198 6
113 31 177 94 240 37 36 109 77 157 89 37 9 88 54 104 93 8 18 14 52 14 76 0
23 7 69 15 102 63 240 303 399 542 358 222 -38 402 -241 403 -453 0 -49 26
-116 56 -142 10 -9 46 -26 79 -39 157 -58 235 -166 235 -325 0 -118 22 -154
130 -209 121 -62 229 -170 272 -275 19 -45 39 -61 77 -62 35 -1 59 16 73 51 7
20 2 38 -26 96 -66 134 -182 251 -311 314 l-63 31 -4 93 c-3 81 -8 102 -40
167 -19 41 -53 95 -74 119 -46 53 -137 114 -203 136 l-48 16 -6 72 c-18 239
-203 464 -442 540 -101 32 -272 31 -370 -1 -107 -36 -172 -78 -260 -166 -60
-60 -90 -101 -118 -157 -38 -78 -67 -184 -67 -250 0 -35 -2 -37 -59 -58 -123
-45 -235 -156 -282 -280 -13 -34 -23 -90 -26 -141 -4 -61 -10 -89 -21 -97 -24
-19 -40 -16 -47 10 -49 162 -213 529 -306 684 -225 375 -464 533 -708 467z
m3407 -2409 c212 -50 392 -240 458 -485 25 -91 25 -290 0 -385 -33 -127 -91
-231 -181 -321 -84 -85 -143 -123 -237 -155 -92 -31 -88 -34 -88 88 l0 107
124 126 c76 76 127 136 131 153 11 42 -21 81 -69 85 -34 3 -43 -3 -111 -69
l-75 -72 0 125 c0 108 -3 129 -19 149 -26 32 -86 32 -112 0 -18 -22 -19 -46
-19 -367 0 -390 9 -357 -93 -323 -189 63 -345 238 -407 454 -24 82 -35 237
-23 314 8 54 8 55 68 85 118 59 250 218 300 361 22 63 23 65 96 104 85 45 147
52 257 26z m-1947 -514 c146 -50 308 -35 462 42 l87 45 0 -1059 0 -1059 -915
0 -915 0 0 544 0 545 48 6 c336 45 637 235 833 528 92 138 178 339 204 478 l7
36 63 -42 c34 -23 91 -52 126 -64z m774 43 c77 -40 119 -53 213 -68 l77 -12 7
-139 c8 -167 30 -263 91 -390 99 -204 265 -351 471 -414 37 -11 79 -21 92 -21
l24 0 0 -515 0 -515 -525 0 -525 0 0 1056 c0 581 3 1054 8 1052 4 -2 34 -17
67 -34z"/>
</g>
</svg>
